<?xml version="1.0" encoding="utf-8"?>
<!-- Generator: Adobe Illustrator 24.2.1, SVG Export Plug-In . SVG Version: 6.00 Build 0)  -->
<svg version="1.2" baseProfile="tiny" id="Layer_1" xmlns="http://www.w3.org/2000/svg" xmlns:xlink="http://www.w3.org/1999/xlink"
	 x="0px" y="0px" viewBox="0 0 400 400" overflow="visible" xml:space="preserve">
<g>
	<g>
		<path fill="none" d="M89.27,159.33c13.91-19.42,35.25-36.92,57.61-47.27c-0.06-0.04-0.11-0.08-0.16-0.12
			C124.38,122.36,103.1,139.89,89.27,159.33z"/>
		<radialGradient id="SVGID_1_" cx="71.7894" cy="200.6098" r="85.7318" gradientUnits="userSpaceOnUse">
			<stop  offset="0.2708" style="stop-color:#FFFFFF"/>
			<stop  offset="0.4843" style="stop-color:#F9F8F8"/>
			<stop  offset="0.6883" style="stop-color:#ECEBEB"/>
			<stop  offset="0.888" style="stop-color:#DAD9D8"/>
			<stop  offset="1" style="stop-color:#CDCCCC"/>
		</radialGradient>
		<path fill="url(#SVGID_1_)" d="M77.5,165.13c14.37-23.12,39.82-44.32,66.08-55.26C106.09,87.24,42.05,123.4,15.54,165.98
			c-26.72,42.95-18.14,97.15,19.2,121.09c21.54,13.79,47.96,14.48,71.59,4.34c-3.31-1.46-6.55-3.17-9.69-5.18
			C59.32,262.31,50.73,208.1,77.5,165.13z"/>
		<radialGradient id="SVGID_2_" cx="142.1201" cy="199.9928" r="85.9083" gradientUnits="userSpaceOnUse">
			<stop  offset="0.19" style="stop-color:#FFE72F"/>
			<stop  offset="0.4033" style="stop-color:#FBC62D"/>
			<stop  offset="0.8859" style="stop-color:#F27325"/>
			<stop  offset="1" style="stop-color:#F15C24"/>
		</radialGradient>
		<path fill="url(#SVGID_2_)" d="M144.79,261.15c-15.83-27.23-15.26-64.81,4.37-96.36c4.85-7.79,10.96-15.35,17.93-22.39
			c13.47-13.6,30.17-25.2,47.26-32.48c-0.02-0.01-0.03-0.02-0.05-0.03c-9.45-6.08-20.66-8.22-32.57-7.44
			c-11.29,0.76-23.21,4.21-34.86,9.6c-22.36,10.35-43.7,27.85-57.61,47.27c-1.35,1.9-2.63,3.81-3.83,5.73
			c-26.73,42.97-18.15,97.18,19.18,121.12c1.91,1.21,3.85,2.32,5.83,3.33c9.38,4.8,19.48,7.35,29.77,7.81
			c-0.99,0.06-1.98,0.1-2.96,0.11c0.91,0.07,1.82,0.13,2.73,0.17c12.31,0.53,24.85-1.94,36.68-7.12c-2.85-1.32-5.64-2.84-8.35-4.58
			C158.4,279.54,150.53,271.02,144.79,261.15z"/>
		<radialGradient id="SVGID_3_" cx="227.4292" cy="199.3733" r="91.9577" gradientUnits="userSpaceOnUse">
			<stop  offset="0.2708" style="stop-color:#FFFFFF"/>
			<stop  offset="0.4843" style="stop-color:#F9F8F8"/>
			<stop  offset="0.6883" style="stop-color:#ECEBEB"/>
			<stop  offset="0.888" style="stop-color:#DAD9D8"/>
			<stop  offset="1" style="stop-color:#CDCCCC"/>
		</radialGradient>
		<path fill="url(#SVGID_3_)" d="M286.19,109.3c-9.44-6.11-20.66-8.27-32.56-7.44c-11.73,0.79-24.13,4.48-36.21,10.24
			c-18.07,8.61-35.38,21.84-48.53,36.92c-4.43,5.07-8.39,10.35-11.75,15.74c-18.13,29.13-20.01,63.38-7.72,89.9
			c5.84,12.61,14.86,23.47,26.89,31.19c1.49,0.96,3.01,1.85,4.55,2.68c9.74,5.27,20.3,8.02,31.06,8.47
			c30.01,1.32,61.48-15.31,80.39-45.67C319.05,208.37,323.51,133.19,286.19,109.3z"/>
	</g>
	<g>
		<g>
			<path fill="#002D6A" d="M161.08,179.15l-1.46,4.52c1.55-1.81,3.2-3.14,4.97-4.08c1.73-0.89,3.62-1.38,5.64-1.38
				c2.52-0.02,4.4,0.58,5.7,1.76c1.29,1.22,1.91,2.74,1.9,4.55c-0.01,1.81-0.58,4.88-1.67,9.2l-8.77,34.41l-14.71,0.09l8.68-34.01
				c0.87-3.37,1.28-5.44,1.27-6.2c-0.02-0.71-0.54-1.09-1.51-1.07c-1.01,0-1.75,0.45-2.24,1.29c-0.48,0.85-1.2,3.14-2.14,6.82
				l-8.47,33.21l-14.73,0.14l12.52-49.12L161.08,179.15z"/>
			<path fill="#002D6A" d="M199.17,196.29l0.92-3.63c0.65-2.56,0.93-4.19,0.84-4.95c-0.09-0.73-0.51-1.09-1.3-1.09
				c-1.04,0.02-1.76,0.33-2.14,0.96c-0.4,0.62-0.96,2.36-1.67,5.13l-0.91,3.61L199.17,196.29z M211.85,204.11l-18.98,0.14
				l-2.7,10.63c-0.56,2.23-0.79,3.66-0.65,4.3c0.14,0.65,0.67,0.96,1.55,0.94c1.1,0,1.93-0.43,2.52-1.29c0.6-0.85,1.2-2.5,1.81-4.95
				l1.66-6.48l13.99-0.11l-0.92,3.61c-0.79,3.03-1.56,5.35-2.36,7c-0.79,1.65-2.13,3.39-3.97,5.22c-1.83,1.89-3.93,3.3-6.3,4.23
				c-2.35,0.93-5.13,1.42-8.34,1.47c-3.09,0-5.69-0.4-7.85-1.29c-2.15-0.89-3.67-2.14-4.59-3.72c-0.9-1.58-1.37-3.32-1.42-5.24
				c0-1.89,0.45-4.68,1.38-8.31l3.67-14.33c1.06-4.28,2.5-7.67,4.26-10.17c1.79-2.5,4.15-4.41,7.06-5.75
				c2.95-1.34,6.08-2.03,9.45-2.05c4.1-0.05,7.3,0.71,9.58,2.32c2.27,1.56,3.6,3.63,4.01,6.24c0.41,2.63,0.01,6.33-1.19,11.08
				L211.85,204.11z"/>
			<path fill="#002D6A" d="M270.57,178.21l-18.45,49.17h-15.58c0.02-0.2-0.16-0.29-0.14-0.54c0.65-5.91,1.66-13.62,2.95-23.13
				c-1.64,4.37-3.37,8.73-5.21,13.15l-4.22,10.7l-15.8,0.16l6.3-49.05l12.57-0.13c-0.21,1.27-1.51,10.7-3.97,28.22
				c0.7-1.89,4.23-11.28,10.55-28.26l12.01-0.09l-4.15,28.22c2.59-8.33,6.13-17.74,10.54-28.31L270.57,178.21z"/>
			<path fill="#002D6A" d="M288.99,195.4l0.9-3.61c0.65-2.56,0.95-4.21,0.86-4.95c-0.07-0.76-0.51-1.11-1.32-1.11
				c-1.02,0-1.74,0.33-2.12,0.98c-0.39,0.65-0.95,2.34-1.65,5.1l-0.94,3.61L288.99,195.4z M301.66,203.22l-18.96,0.18l-2.73,10.61
				c-0.56,2.23-0.78,3.65-0.64,4.3c0.17,0.65,0.67,0.94,1.55,0.91c1.11,0,1.94-0.4,2.53-1.29c0.61-0.85,1.2-2.5,1.82-4.93l1.65-6.49
				l13.98-0.13l-0.93,3.61c-0.78,3.03-1.55,5.39-2.34,7.02c-0.79,1.63-2.13,3.37-3.97,5.22c-1.85,1.87-3.95,3.28-6.31,4.23
				c-2.33,0.93-5.13,1.43-8.33,1.45c-3.1,0.05-5.69-0.4-7.87-1.29c-2.14-0.89-3.68-2.14-4.55-3.72c-0.91-1.58-1.39-3.32-1.42-5.22
				c-0.01-1.92,0.44-4.66,1.36-8.34l3.67-14.33c1.08-4.26,2.53-7.67,4.31-10.14c1.76-2.52,4.11-4.39,7.04-5.77
				c2.92-1.31,6.06-2.01,9.44-2.05c4.09,0,7.28,0.76,9.58,2.31c2.26,1.56,3.62,3.66,4.02,6.26c0.39,2.63,0.01,6.31-1.2,11.08
				L301.66,203.22z"/>
			<path fill="#002D6A" d="M328.41,190.61c0.55-2.25,0.79-3.68,0.68-4.3c-0.1-0.6-0.56-0.92-1.43-0.92c-0.86,0-1.55,0.38-2.07,1.09
				c-0.56,0.69-1.1,2.12-1.61,4.16l-4.23,16.52c-0.55,2.21-0.79,3.63-0.69,4.28c0.1,0.65,0.59,0.98,1.42,0.98
				c0.96-0.03,1.71-0.42,2.21-1.21c0.49-0.8,1.12-2.59,1.8-5.39L328.41,190.61z M346.43,177.45l-9.65,37.85
				c-1.3,5.13-2.29,8.43-2.91,9.92c-0.61,1.49-1.84,3.1-3.67,4.77c-1.81,1.65-4.1,2.96-6.84,3.88c-2.73,0.91-6.01,1.36-9.77,1.36
				c-4.7,0.07-8.26-0.71-10.68-2.29c-1.57-1.05-2.08-2.25-2.19-4.52v-5.08l14.5-0.04c-0.57,2.21-0.07,3.32,1.52,3.3
				c1.09-0.02,1.94-0.35,2.48-1.02c0.53-0.71,1.08-2.09,1.63-4.24l0.98-3.79c-1.58,1.18-3.12,2.09-4.68,2.67
				c-1.53,0.6-3.07,0.91-4.61,0.93c-2.66,0-4.69-0.49-6.13-1.56c-1.43-1.07-2.27-2.5-2.45-4.26c-0.17-1.76,0.12-4.26,0.94-7.51
				l4.56-17.83c1.21-4.63,2.87-8,5.05-10.07c2.17-2.05,4.96-3.08,8.3-3.12c1.85,0,3.43,0.36,4.74,1.11
				c1.32,0.76,2.41,1.87,3.22,3.41l1.99-3.72L346.43,177.45z"/>
			<path fill="#002D6A" d="M367.09,190.27c0.55-2.25,0.79-3.68,0.69-4.3c-0.12-0.62-0.59-0.91-1.45-0.89
				c-0.87,0-1.56,0.36-2.09,1.07c-0.51,0.71-1.04,2.1-1.57,4.15l-4.23,16.54c-0.55,2.18-0.77,3.65-0.68,4.28
				c0.11,0.67,0.57,0.98,1.43,0.98c0.95-0.05,1.68-0.4,2.16-1.2c0.54-0.8,1.13-2.59,1.86-5.4L367.09,190.27z M385.11,177.12
				l-9.64,37.87c-1.31,5.13-2.29,8.38-2.9,9.92c-0.63,1.47-1.83,3.05-3.68,4.74c-1.82,1.67-4.12,2.97-6.84,3.86
				c-2.72,0.89-6,1.38-9.79,1.41c-4.7,0.04-8.25-0.71-10.65-2.32c-2.44-1.6-3.08-4.77-1.97-9.54l14.26-0.13
				c-0.54,2.23-0.07,3.34,1.53,3.32c1.1-0.02,1.93-0.36,2.49-1.05c0.52-0.67,1.07-2.1,1.63-4.24l0.94-3.79
				c-1.55,1.2-3.09,2.07-4.65,2.7c-1.53,0.6-3.08,0.91-4.61,0.91c-2.67,0.02-4.7-0.47-6.15-1.56c-1.41-1.07-2.24-2.5-2.44-4.23
				c-0.18-1.74,0.15-4.23,0.97-7.49l4.52-17.83c1.18-4.64,2.89-8.02,5.05-10.08c2.2-2.05,4.96-3.12,8.34-3.14
				c1.81-0.02,3.38,0.36,4.73,1.14c1.3,0.71,2.39,1.87,3.19,3.39l1.99-3.74L385.11,177.12z"/>
		</g>
	</g>
</g>
<g>
	<path fill="#002D6A" d="M394.51,177.21c1.6,0,2.91,0.53,3.94,1.59c1.03,1.06,1.55,2.31,1.55,3.76c0,1.47-0.52,2.73-1.57,3.78
		c-1.05,1.05-2.31,1.57-3.78,1.57c-1.48,0-2.74-0.52-3.78-1.57c-1.04-1.04-1.56-2.31-1.56-3.78c0-1.04,0.28-1.99,0.83-2.86
		c0.55-0.87,1.24-1.5,2.07-1.9C393.03,177.41,393.8,177.21,394.51,177.21z M394.78,178.25c-1.31,0-2.38,0.43-3.19,1.3
		c-0.81,0.87-1.22,1.87-1.22,3.01c0,1.18,0.42,2.19,1.26,3.04c0.84,0.84,1.85,1.26,3.04,1.26c1.18,0,2.19-0.42,3.03-1.26
		c0.84-0.84,1.26-1.86,1.26-3.04c0-0.81-0.21-1.57-0.64-2.25c-0.42-0.69-0.97-1.2-1.63-1.54
		C396.02,178.42,395.39,178.25,394.78,178.25z M392.3,185.42v-5.68h2.69c0.67,0,1.15,0.15,1.45,0.46c0.3,0.31,0.45,0.69,0.45,1.14
		c0,0.44-0.13,0.79-0.38,1.05c-0.25,0.27-0.64,0.44-1.15,0.54c0.23,0.09,0.42,0.21,0.56,0.36c0.14,0.15,0.36,0.48,0.65,0.98
		l0.66,1.14h-1.42l-0.48-0.91c-0.28-0.54-0.53-0.92-0.75-1.11c-0.22-0.2-0.5-0.3-0.85-0.3h-0.3v2.33H392.3z M393.44,182.19h0.94
		c0.47,0,0.8-0.06,1-0.19c0.2-0.12,0.3-0.32,0.3-0.6c0-0.25-0.1-0.44-0.29-0.57c-0.2-0.13-0.49-0.19-0.89-0.19h-1.05V182.19z"/>
</g>
</svg>
