<?xml version="1.0" encoding="utf-8"?>
<!-- Generator: Adobe Illustrator 24.2.1, SVG Export Plug-In . SVG Version: 6.00 Build 0)  -->
<svg version="1.2" baseProfile="tiny" id="Layer_1" xmlns="http://www.w3.org/2000/svg" xmlns:xlink="http://www.w3.org/1999/xlink"
	 x="0px" y="0px" viewBox="0 0 142.5 142.5" overflow="visible" xml:space="preserve">
<g>
	<g>
		<path fill="none" d="M31.8,56.76c4.95-6.92,12.56-13.15,20.52-16.84c-0.02-0.01-0.04-0.03-0.06-0.04
			C44.31,43.59,36.73,49.84,31.8,56.76z"/>
		<radialGradient id="SVGID_1_" cx="25.5759" cy="71.4684" r="30.5421" gradientUnits="userSpaceOnUse">
			<stop  offset="0.2708" style="stop-color:#FFFFFF"/>
			<stop  offset="0.4843" style="stop-color:#F9F8F8"/>
			<stop  offset="0.6883" style="stop-color:#ECEBEB"/>
			<stop  offset="0.888" style="stop-color:#DAD9D8"/>
			<stop  offset="1" style="stop-color:#CDCCCC"/>
		</radialGradient>
		<path fill="url(#SVGID_1_)" d="M27.61,58.83c5.12-8.24,14.19-15.79,23.54-19.69C37.8,31.08,14.98,43.96,5.54,59.13
			c-9.52,15.3-6.46,34.61,6.84,43.14c7.67,4.91,17.09,5.16,25.5,1.54c-1.18-0.52-2.33-1.13-3.45-1.85
			C21.13,93.45,18.07,74.14,27.61,58.83z"/>
		<radialGradient id="SVGID_2_" cx="50.6314" cy="71.2486" r="30.605" gradientUnits="userSpaceOnUse">
			<stop  offset="0.19" style="stop-color:#FFE72F"/>
			<stop  offset="0.4033" style="stop-color:#FBC62D"/>
			<stop  offset="0.8859" style="stop-color:#F27325"/>
			<stop  offset="1" style="stop-color:#F15C24"/>
		</radialGradient>
		<path fill="url(#SVGID_2_)" d="M51.58,93.04c-5.64-9.7-5.43-23.09,1.56-34.33c1.73-2.77,3.9-5.47,6.39-7.98
			c4.8-4.85,10.75-8.98,16.84-11.57c-0.01,0-0.01-0.01-0.02-0.01c-3.36-2.17-7.36-2.93-11.6-2.65c-4.02,0.27-8.27,1.5-12.42,3.42
			c-7.97,3.69-15.57,9.92-20.52,16.84c-0.48,0.68-0.94,1.36-1.36,2.04c-9.52,15.31-6.47,34.62,6.83,43.15
			c0.68,0.43,1.37,0.83,2.08,1.19c3.34,1.71,6.94,2.62,10.61,2.78c-0.35,0.02-0.7,0.03-1.06,0.04c0.32,0.03,0.65,0.05,0.97,0.06
			c4.38,0.19,8.85-0.69,13.07-2.54c-1.02-0.47-2.01-1.01-2.98-1.63C56.43,99.59,53.63,96.55,51.58,93.04z"/>
		<radialGradient id="SVGID_3_" cx="81.0229" cy="71.0279" r="32.7601" gradientUnits="userSpaceOnUse">
			<stop  offset="0.2708" style="stop-color:#FFFFFF"/>
			<stop  offset="0.4843" style="stop-color:#F9F8F8"/>
			<stop  offset="0.6883" style="stop-color:#ECEBEB"/>
			<stop  offset="0.888" style="stop-color:#DAD9D8"/>
			<stop  offset="1" style="stop-color:#CDCCCC"/>
		</radialGradient>
		<path fill="url(#SVGID_3_)" d="M101.95,38.94c-3.36-2.18-7.36-2.95-11.6-2.65c-4.18,0.28-8.6,1.6-12.9,3.65
			c-6.44,3.07-12.6,7.78-17.29,13.15c-1.58,1.81-2.99,3.69-4.19,5.61c-6.46,10.38-7.13,22.58-2.75,32.03
			c2.08,4.49,5.3,8.36,9.58,11.11c0.53,0.34,1.07,0.66,1.62,0.95c3.47,1.88,7.23,2.86,11.06,3.02c10.69,0.47,21.9-5.45,28.64-16.27
			C113.66,74.23,115.25,47.45,101.95,38.94z"/>
	</g>
	<g>
		<g>
			<path fill="#002D6A" d="M57.39,63.82l-0.52,1.61c0.55-0.64,1.14-1.12,1.77-1.45c0.62-0.32,1.29-0.49,2.01-0.49
				c0.9-0.01,1.57,0.21,2.03,0.63c0.46,0.44,0.68,0.98,0.68,1.62c0,0.64-0.21,1.74-0.59,3.28l-3.13,12.26l-5.24,0.03l3.09-12.12
				c0.31-1.2,0.46-1.94,0.45-2.21c-0.01-0.25-0.19-0.39-0.54-0.38c-0.36,0-0.62,0.16-0.8,0.46c-0.17,0.3-0.43,1.12-0.76,2.43
				l-3.02,11.83l-5.25,0.05l4.46-17.5L57.39,63.82z"/>
			<path fill="#002D6A" d="M70.96,69.93l0.33-1.29c0.23-0.91,0.33-1.49,0.3-1.76c-0.03-0.26-0.18-0.39-0.46-0.39
				c-0.37,0.01-0.63,0.12-0.76,0.34c-0.14,0.22-0.34,0.84-0.59,1.83l-0.32,1.29L70.96,69.93z M75.47,72.72l-6.76,0.05l-0.96,3.79
				c-0.2,0.79-0.28,1.3-0.23,1.53c0.05,0.23,0.24,0.34,0.55,0.33c0.39,0,0.69-0.15,0.9-0.46c0.21-0.3,0.43-0.89,0.65-1.76l0.59-2.31
				l4.98-0.04l-0.33,1.29c-0.28,1.08-0.56,1.91-0.84,2.49c-0.28,0.59-0.76,1.21-1.41,1.86c-0.65,0.67-1.4,1.17-2.24,1.51
				c-0.84,0.33-1.83,0.51-2.97,0.52c-1.1,0-2.03-0.14-2.8-0.46c-0.77-0.32-1.31-0.76-1.63-1.33c-0.32-0.56-0.49-1.18-0.51-1.87
				c0-0.67,0.16-1.67,0.49-2.96l1.31-5.11c0.38-1.52,0.89-2.73,1.52-3.62c0.64-0.89,1.48-1.57,2.52-2.05
				c1.05-0.48,2.17-0.72,3.37-0.73c1.46-0.02,2.6,0.25,3.41,0.83c0.81,0.56,1.28,1.29,1.43,2.22c0.15,0.94,0,2.25-0.43,3.95
				L75.47,72.72z"/>
			<path fill="#002D6A" d="M96.39,63.49l-6.57,17.52h-5.55c0.01-0.07-0.06-0.1-0.05-0.19c0.23-2.1,0.59-4.85,1.05-8.24
				c-0.58,1.56-1.2,3.11-1.85,4.68l-1.5,3.81l-5.63,0.06l2.24-17.48l4.48-0.05c-0.07,0.45-0.54,3.81-1.41,10.05
				c0.25-0.67,1.51-4.02,3.76-10.07l4.28-0.03l-1.48,10.05c0.92-2.97,2.18-6.32,3.75-10.08L96.39,63.49z"/>
			<path fill="#002D6A" d="M102.96,69.61l0.32-1.29c0.23-0.91,0.34-1.5,0.31-1.76c-0.02-0.27-0.18-0.4-0.47-0.4
				c-0.36,0-0.62,0.12-0.76,0.35c-0.14,0.23-0.34,0.83-0.59,1.82l-0.33,1.29L102.96,69.61z M107.47,72.4l-6.75,0.06l-0.97,3.78
				c-0.2,0.79-0.28,1.3-0.23,1.53c0.06,0.23,0.24,0.33,0.55,0.33c0.4,0,0.69-0.14,0.9-0.46c0.22-0.3,0.43-0.89,0.65-1.75l0.59-2.31
				l4.98-0.05l-0.33,1.29c-0.28,1.08-0.55,1.92-0.83,2.5c-0.28,0.58-0.76,1.2-1.41,1.86c-0.66,0.67-1.41,1.17-2.25,1.51
				c-0.83,0.33-1.83,0.51-2.97,0.51c-1.11,0.02-2.03-0.14-2.81-0.46c-0.76-0.32-1.31-0.76-1.62-1.33c-0.32-0.56-0.5-1.18-0.51-1.86
				c0-0.68,0.16-1.66,0.48-2.97l1.31-5.1c0.38-1.52,0.9-2.73,1.53-3.61c0.63-0.9,1.46-1.56,2.51-2.06c1.04-0.47,2.16-0.71,3.36-0.73
				c1.46,0,2.59,0.27,3.41,0.82c0.8,0.56,1.29,1.3,1.43,2.23c0.14,0.94,0,2.25-0.43,3.95L107.47,72.4z"/>
			<path fill="#002D6A" d="M117,67.9c0.2-0.8,0.28-1.31,0.24-1.53c-0.03-0.22-0.2-0.33-0.51-0.33c-0.31,0-0.55,0.14-0.74,0.39
				c-0.2,0.25-0.39,0.75-0.57,1.48l-1.51,5.88c-0.2,0.79-0.28,1.29-0.25,1.52c0.03,0.23,0.21,0.35,0.51,0.35
				c0.34-0.01,0.61-0.15,0.79-0.43c0.17-0.29,0.4-0.92,0.64-1.92L117,67.9z M123.42,63.22l-3.44,13.48c-0.46,1.83-0.82,3-1.04,3.53
				c-0.22,0.53-0.66,1.1-1.31,1.7c-0.65,0.59-1.46,1.06-2.44,1.38c-0.97,0.33-2.14,0.48-3.48,0.48c-1.67,0.02-2.94-0.25-3.81-0.82
				c-0.56-0.37-0.74-0.8-0.78-1.61v-1.81l5.17-0.02c-0.2,0.79-0.02,1.18,0.54,1.17c0.39-0.01,0.69-0.13,0.88-0.36
				c0.19-0.25,0.39-0.75,0.58-1.51l0.35-1.35c-0.56,0.42-1.11,0.75-1.67,0.95c-0.54,0.21-1.09,0.33-1.64,0.33
				c-0.95,0-1.67-0.17-2.18-0.56c-0.51-0.38-0.81-0.89-0.87-1.52c-0.06-0.63,0.04-1.52,0.34-2.68l1.63-6.35
				c0.43-1.65,1.02-2.85,1.8-3.59c0.77-0.73,1.77-1.1,2.96-1.11c0.66,0,1.22,0.13,1.69,0.4c0.47,0.27,0.86,0.67,1.15,1.22l0.71-1.33
				L123.42,63.22z"/>
			<path fill="#002D6A" d="M130.78,67.79c0.2-0.8,0.28-1.31,0.25-1.53c-0.04-0.22-0.21-0.32-0.52-0.32c-0.31,0-0.56,0.13-0.75,0.38
				c-0.18,0.25-0.37,0.75-0.56,1.48l-1.51,5.89c-0.2,0.78-0.27,1.3-0.24,1.52c0.04,0.24,0.2,0.35,0.51,0.35
				c0.34-0.02,0.6-0.14,0.77-0.43c0.19-0.29,0.4-0.92,0.66-1.92L130.78,67.79z M137.2,63.1l-3.44,13.49
				c-0.47,1.83-0.82,2.99-1.03,3.53c-0.22,0.52-0.65,1.09-1.31,1.69c-0.65,0.6-1.47,1.06-2.44,1.37c-0.97,0.32-2.14,0.49-3.49,0.5
				c-1.67,0.02-2.94-0.25-3.79-0.83c-0.87-0.57-1.1-1.7-0.7-3.4l5.08-0.05c-0.19,0.79-0.02,1.19,0.54,1.18
				c0.39-0.01,0.69-0.13,0.89-0.37c0.19-0.24,0.38-0.75,0.58-1.51l0.34-1.35c-0.55,0.43-1.1,0.74-1.66,0.96
				c-0.54,0.21-1.1,0.33-1.64,0.33c-0.95,0.01-1.68-0.17-2.19-0.56c-0.5-0.38-0.8-0.89-0.87-1.51c-0.06-0.62,0.05-1.51,0.35-2.67
				l1.61-6.35c0.42-1.65,1.03-2.86,1.8-3.59c0.78-0.73,1.77-1.11,2.97-1.12c0.65-0.01,1.21,0.13,1.68,0.4
				c0.46,0.25,0.85,0.67,1.14,1.21l0.71-1.33L137.2,63.1z"/>
		</g>
	</g>
</g>
<g>
	<path fill="#002D6A" d="M140.55,63.13c0.57,0,1.04,0.19,1.4,0.57c0.37,0.38,0.55,0.82,0.55,1.34c0,0.52-0.19,0.97-0.56,1.35
		c-0.37,0.37-0.82,0.56-1.35,0.56c-0.53,0-0.98-0.19-1.35-0.56c-0.37-0.37-0.56-0.82-0.56-1.35c0-0.37,0.1-0.71,0.29-1.02
		c0.2-0.31,0.44-0.53,0.74-0.68C140.02,63.2,140.29,63.13,140.55,63.13z M140.64,63.5c-0.47,0-0.85,0.15-1.14,0.46
		c-0.29,0.31-0.43,0.67-0.43,1.07c0,0.42,0.15,0.78,0.45,1.08c0.3,0.3,0.66,0.45,1.08,0.45c0.42,0,0.78-0.15,1.08-0.45
		c0.3-0.3,0.45-0.66,0.45-1.08c0-0.29-0.08-0.56-0.23-0.8c-0.15-0.24-0.35-0.43-0.58-0.55C141.09,63.56,140.86,63.5,140.64,63.5z
		 M139.76,66.06v-2.02h0.96c0.24,0,0.41,0.06,0.52,0.17c0.11,0.11,0.16,0.25,0.16,0.41c0,0.16-0.05,0.28-0.14,0.38
		c-0.09,0.09-0.23,0.16-0.41,0.19c0.08,0.03,0.15,0.07,0.2,0.13c0.05,0.05,0.13,0.17,0.23,0.35l0.24,0.41h-0.51l-0.17-0.33
		c-0.1-0.19-0.19-0.33-0.27-0.4c-0.08-0.07-0.18-0.11-0.3-0.11h-0.11v0.83H139.76z M140.17,64.91h0.33c0.17,0,0.29-0.02,0.36-0.07
		c0.07-0.04,0.11-0.12,0.11-0.21c0-0.09-0.03-0.16-0.1-0.2c-0.07-0.04-0.18-0.07-0.32-0.07h-0.38V64.91z"/>
</g>
</svg>
